<svg xmlns="http://www.w3.org/2000/svg" xmlns:xlink="http://www.w3.org/1999/xlink" viewBox="0,0,256,256" width="50px" height="50px"><g fill="#ffffff" fill-rule="nonzero" stroke="none" stroke-width="1" stroke-linecap="butt" stroke-linejoin="miter" stroke-miterlimit="10" stroke-dasharray="" stroke-dashoffset="0" font-family="none" font-weight="none" font-size="none" text-anchor="none" style="mix-blend-mode: normal"><g transform="scale(5.12,5.12)"><path d="M11.59375,13.40625c-6.35937,0 -11.59375,5.23047 -11.59375,11.59375c0,6.36328 5.23438,11.59375 11.59375,11.59375c4.66797,0 8.41406,-2.78906 11,-5.375c0.97656,-0.97656 1.75391,-1.91016 2.40625,-2.75c0.65234,0.83984 1.42969,1.77344 2.40625,2.75c2.58594,2.58594 6.33203,5.375 11,5.375c6.35938,0 11.59375,-5.23047 11.59375,-11.59375c0,-6.36328 -5.23047,-11.59375 -11.59375,-11.59375c-4.66797,0 -8.41406,2.78906 -11,5.375c-0.97656,0.97656 -1.75391,1.91016 -2.40625,2.75c-0.63672,-0.83203 -1.38672,-1.75391 -2.34375,-2.71875c-2.56641,-2.59375 -6.32031,-5.40625 -11.0625,-5.40625zM11.59375,17.40625c3.11719,0 6.04297,2.01953 8.21875,4.21875c1.35938,1.37109 2.21484,2.50781 2.78125,3.34375c-0.57812,0.83203 -1.44141,2.00391 -2.84375,3.40625c-2.20703,2.20703 -5.15625,4.21875 -8.15625,4.21875c-4.17969,0 -7.59375,-3.41406 -7.59375,-7.59375c0,-4.17969 3.41406,-7.59375 7.59375,-7.59375zM38.40625,17.40625c4.17969,0 7.59375,3.41406 7.59375,7.59375c0,4.17969 -3.41406,7.59375 -7.59375,7.59375c-3,0 -5.94922,-2.01172 -8.15625,-4.21875c-1.375,-1.375 -2.23047,-2.53516 -2.8125,-3.375c0.58203,-0.83984 1.4375,-2 2.8125,-3.375c2.20703,-2.20703 5.15625,-4.21875 8.15625,-4.21875zM36,20v3h-3v4h3v3h4v-3h3v-4h-3v-3zM7,23v4h10v-4z"></path></g></g></svg>